<svg width="150" height="150" viewBox="0 0 150 150" fill="none" xmlns="http://www.w3.org/2000/svg">
<path fill-rule="evenodd" clip-rule="evenodd" d="M105.665 65.8252C105.665 65.8252 106.241 68.75 106.437 68.778C117.043 70.2904 125 76.4766 125 87.5C125 99.5812 115.206 109.375 103.125 109.375H46.875C34.7938 109.375 25 99.5812 25 87.5C25 76.4766 33.1538 67.3576 43.7593 65.8452C43.9558 65.8172 44.1483 65.8112 44.3352 65.8252C47.1527 51.4616 59.8109 40.625 75 40.625C90.1891 40.625 102.847 51.4616 105.665 65.8252Z" fill="#F3F3F3"/>
<path d="M103.125 109.375H104.412C115.782 109.375 125 100.397 125 89.3229C125 79.1822 117.271 70.7997 107.238 69.4582C105.843 53.3085 91.9422 40.625 75 40.625C60.0134 40.625 47.4067 50.5495 43.7306 64.0187C33.037 66.1768 25 75.4035 25 86.4583C25 98.5732 34.652 108.492 46.875 109.319" stroke="#231815" stroke-width="2" stroke-linecap="round" stroke-linejoin="round"/>
<path fill-rule="evenodd" clip-rule="evenodd" d="M65.625 90.625C65.625 85.4473 69.8223 81.25 75 81.25C80.1777 81.25 84.375 85.4473 84.375 90.625V92.1875C84.375 98.2281 79.4781 103.125 73.4375 103.125H53.125C51.3991 103.125 50 101.726 50 100C50 98.2741 51.3991 96.875 53.125 96.875H73.4375C76.0263 96.875 78.125 94.7763 78.125 92.1875V90.625C78.125 88.8991 76.7259 87.5 75 87.5C73.2741 87.5 71.875 88.8991 71.875 90.625V91.4773C71.875 93.2032 70.4759 94.6023 68.75 94.6023C67.0241 94.6023 65.625 93.2032 65.625 91.4773V90.625ZM78.125 129.688C78.125 135.728 83.0219 140.625 89.0625 140.625C95.1031 140.625 100 135.728 100 129.688V128.125C100 121.221 94.4036 115.625 87.5 115.625H56.25C54.5241 115.625 53.125 117.024 53.125 118.75C53.125 120.476 54.5241 121.875 56.25 121.875H87.5C90.9518 121.875 93.75 124.673 93.75 128.125V129.688C93.75 132.276 91.6513 134.375 89.0625 134.375C86.4737 134.375 84.375 132.276 84.375 129.688V128.125C84.375 126.399 82.9759 125 81.25 125C79.5241 125 78.125 126.399 78.125 128.125V129.688ZM59.375 106.25C57.6491 106.25 56.25 107.649 56.25 109.375C56.25 111.101 57.6491 112.5 59.375 112.5H90.625C92.3509 112.5 93.75 111.101 93.75 109.375C93.75 107.649 92.3509 106.25 90.625 106.25H59.375Z" fill="#231815"/>
</svg>
