<svg width="150" height="150" viewBox="0 0 150 150" fill="none" xmlns="http://www.w3.org/2000/svg">
<path fill-rule="evenodd" clip-rule="evenodd" d="M105.665 65.8252C105.665 65.8252 106.241 68.75 106.437 68.778C117.043 70.2904 125 76.4766 125 87.5C125 99.5812 115.206 109.375 103.125 109.375H46.875C34.7938 109.375 25 99.5812 25 87.5C25 76.4766 33.1538 67.3576 43.7593 65.8452C43.9558 65.8172 44.1483 65.8112 44.3352 65.8252C47.1527 51.4616 59.8109 40.625 75 40.625C90.1891 40.625 102.847 51.4616 105.665 65.8252Z" fill="#F3F3F3"/>
<path d="M103.125 109.375H104.412C115.782 109.375 125 100.397 125 89.3229C125 79.1822 117.271 70.7997 107.238 69.4582C105.843 53.3085 91.9422 40.625 75 40.625C60.0134 40.625 47.4067 50.5495 43.7306 64.0187C33.037 66.1768 25 75.4035 25 86.4583C25 98.5732 34.652 108.492 46.875 109.319" stroke="#231815" stroke-width="2" stroke-linecap="round" stroke-linejoin="round"/>
<path d="M53.125 93.75H88.1163C89.6836 93.75 91.1472 94.5333 92.0166 95.8373V95.8373C93.0662 97.4119 93.0662 99.4631 92.0166 101.038V101.038C91.1472 102.342 89.6836 103.125 88.1163 103.125H65.0087C63.4414 103.125 61.9778 103.908 61.1084 105.212V105.212C60.0588 106.787 60.0588 108.838 61.1084 110.413V110.413C61.9778 111.717 63.4414 112.5 65.0087 112.5H81.8663C83.4336 112.5 84.8972 113.283 85.7666 114.587V114.587C86.8162 116.162 86.8162 118.213 85.7666 119.788V119.788C84.8972 121.092 83.4336 121.875 81.8663 121.875H71.2587C69.6914 121.875 68.2278 122.658 67.3584 123.962V123.962C66.3088 125.537 66.3088 127.588 67.3584 129.163V129.163C68.2278 130.467 69.6914 131.25 71.2587 131.25H78.125" stroke="#231815" stroke-width="2" stroke-linecap="round" stroke-linejoin="round"/>
</svg>
