<svg width="150" height="150" viewBox="0 0 150 150" fill="none" xmlns="http://www.w3.org/2000/svg">
<path fill-rule="evenodd" clip-rule="evenodd" d="M111.602 61.8266C111.602 61.8266 112.29 65.2084 112.525 65.2408C125.208 66.9895 134.723 74.1425 134.723 86.8887C134.723 100.858 123.012 112.182 108.565 112.182H41.2999C26.8529 112.182 15.1414 100.858 15.1414 86.8887C15.1414 74.1425 24.8919 63.5984 37.574 61.8497C37.809 61.8173 38.0392 61.8104 38.2627 61.8266C41.632 45.2182 56.7688 32.6881 74.9323 32.6881C93.0957 32.6881 108.233 45.2182 111.602 61.8266Z" fill="#F3F3F3"/>
<path d="M108.565 112.182H110.103C123.701 112.182 134.723 101.802 134.723 88.9965C134.723 77.271 125.481 67.5784 113.483 66.0273C111.815 47.3538 95.192 32.6881 74.9323 32.6881C57.011 32.6881 41.9358 44.1636 37.5397 59.7377C24.7521 62.2332 15.1414 72.9017 15.1414 85.6842C15.1414 99.6923 26.6834 111.162 41.2999 112.118" stroke="#231815" stroke-width="2" stroke-linecap="round" stroke-linejoin="round"/>
<path d="M52.5107 121.924L61.853 106.278M71.1953 118.311L80.5376 102.665M86.143 125.538L95.4853 109.891" stroke="#231815" stroke-width="2" stroke-linecap="round" stroke-linejoin="round"/>
</svg>
