<svg width="150" height="150" viewBox="0 0 150 150" fill="none" xmlns="http://www.w3.org/2000/svg">
<path fill-rule="evenodd" clip-rule="evenodd" d="M105.665 65.8252C105.665 65.8252 106.241 68.75 106.437 68.778C117.043 70.2904 125 76.4766 125 87.5C125 99.5812 115.206 109.375 103.125 109.375H46.875C34.7938 109.375 25 99.5812 25 87.5C25 76.4766 33.1538 67.3576 43.7593 65.8452C43.9558 65.8172 44.1483 65.8112 44.3352 65.8252C47.1527 51.4616 59.8109 40.625 75 40.625C90.1891 40.625 102.847 51.4616 105.665 65.8252Z" fill="#F3F3F3"/>
<path d="M103.125 109.375H104.412C115.782 109.375 125 100.397 125 89.3229C125 79.1822 117.271 70.7997 107.238 69.4582C105.843 53.3085 91.9422 40.625 75 40.625C60.0134 40.625 47.4067 50.5495 43.7306 64.0187C33.037 66.1768 25 75.4035 25 86.4583C25 98.5732 34.652 108.492 46.875 109.319" stroke="#231815" stroke-width="2" stroke-linecap="round" stroke-linejoin="round"/>
<path fill-rule="evenodd" clip-rule="evenodd" d="M80.8313 113.061C79.3367 112.198 78.9411 110.084 79.9479 108.341L87.2396 95.7111C88.2464 93.9674 90.2742 93.2533 91.7688 94.1162C93.2635 94.9792 93.659 97.0924 92.6522 98.8361L85.3606 111.466C84.3538 113.209 82.326 113.923 80.8313 113.061Z" fill="#231815"/>
<path fill-rule="evenodd" clip-rule="evenodd" d="M83.9563 128.686C82.4617 127.823 82.0661 125.709 83.0729 123.966L90.3646 111.336C91.3714 109.592 93.3992 108.878 94.8938 109.741C96.3885 110.604 96.784 112.717 95.7772 114.461L88.4856 127.091C87.4788 128.834 85.451 129.549 83.9563 128.686Z" fill="#231815"/>
<path d="M63.3546 101.538C63.3546 100.028 64.5788 98.8037 66.089 98.8037C67.5991 98.8037 68.8233 100.028 68.8233 101.538V105.005L71.8259 103.272C73.1337 102.517 74.806 102.965 75.5611 104.272C76.3162 105.58 75.8681 107.253 74.5603 108.008L71.5577 109.741L74.5602 111.475C75.8681 112.23 76.3162 113.902 75.5611 115.21C74.806 116.518 73.1337 116.966 71.8259 116.211L68.8233 114.477V117.944C68.8233 119.455 67.5991 120.679 66.089 120.679C64.5788 120.679 63.3546 119.455 63.3546 117.944V114.477L60.352 116.211C59.0442 116.966 57.3719 116.518 56.6168 115.21C55.8617 113.902 56.3098 112.23 57.6177 111.475L60.6202 109.741L57.6176 108.008C56.3098 107.253 55.8617 105.58 56.6168 104.273C57.3719 102.965 59.0442 102.517 60.352 103.272L63.3546 105.005V101.538Z" fill="#231815"/>
</svg>
