<svg width="150" height="150" viewBox="0 0 150 150" fill="none" xmlns="http://www.w3.org/2000/svg">
<path fill-rule="evenodd" clip-rule="evenodd" d="M105.665 65.8252C105.665 65.8252 106.241 68.75 106.437 68.778C117.043 70.2904 125 76.4766 125 87.5C125 99.5812 115.206 109.375 103.125 109.375H46.875C34.7938 109.375 25 99.5812 25 87.5C25 76.4766 33.1538 67.3576 43.7593 65.8452C43.9558 65.8172 44.1483 65.8112 44.3352 65.8252C47.1527 51.4616 59.8109 40.625 75 40.625C90.1891 40.625 102.847 51.4616 105.665 65.8252Z" fill="#F3F3F3"/>
<path d="M48.5294 109.375C35.5345 109.375 25 99.1149 25 86.4583C25 75.4035 33.037 66.1768 43.7306 64.0187C47.4067 50.5495 60.0134 40.625 75 40.625C91.9422 40.625 105.843 53.3085 107.238 69.4582C117.271 70.7997 125 79.1822 125 89.3229C125 100.397 115.782 109.375 104.412 109.375H48.5294Z" stroke="#231815" stroke-width="2" stroke-linecap="round" stroke-linejoin="round"/>
</svg>
