<svg width="150" height="150" viewBox="0 0 150 150" fill="none" xmlns="http://www.w3.org/2000/svg">
<path fill-rule="evenodd" clip-rule="evenodd" d="M105.665 65.8252C105.665 65.8252 106.241 68.75 106.437 68.778C117.043 70.2904 125 76.4766 125 87.5C125 99.5812 115.206 109.375 103.125 109.375H46.875C34.7938 109.375 25 99.5812 25 87.5C25 76.4766 33.1538 67.3576 43.7593 65.8452C43.9558 65.8172 44.1483 65.8112 44.3352 65.8252C47.1527 51.4616 59.8109 40.625 75 40.625C90.1891 40.625 102.847 51.4616 105.665 65.8252Z" fill="#F3F3F3"/>
<path d="M103.125 109.375H104.412C115.782 109.375 125 100.397 125 89.3229C125 79.1822 117.271 70.7997 107.238 69.4582C105.843 53.3085 91.9422 40.625 75 40.625C60.0134 40.625 47.4067 50.5495 43.7306 64.0187C33.037 66.1768 25 75.4035 25 86.4583C25 98.5732 34.652 108.492 46.875 109.319" stroke="#231815" stroke-width="2" stroke-linecap="round" stroke-linejoin="round"/>
<path d="M65.625 107.812C65.625 110.401 63.5263 112.5 60.9375 112.5C58.3487 112.5 56.25 110.401 56.25 107.812C56.25 105.224 58.3487 103.125 60.9375 103.125C63.5263 103.125 65.625 105.224 65.625 107.812Z" fill="#231815"/>
<path d="M79.6875 114.062C79.6875 116.651 77.5888 118.75 75 118.75C72.4112 118.75 70.3125 116.651 70.3125 114.062C70.3125 111.474 72.4112 109.375 75 109.375C77.5888 109.375 79.6875 111.474 79.6875 114.062Z" fill="#231815"/>
<path d="M79.6875 98.4375C79.6875 101.026 77.5888 103.125 75 103.125C72.4112 103.125 70.3125 101.026 70.3125 98.4375C70.3125 95.8487 72.4112 93.75 75 93.75C77.5888 93.75 79.6875 95.8487 79.6875 98.4375Z" fill="#231815"/>
<path d="M93.75 107.812C93.75 110.401 91.6513 112.5 89.0625 112.5C86.4737 112.5 84.375 110.401 84.375 107.812C84.375 105.224 86.4737 103.125 89.0625 103.125C91.6513 103.125 93.75 105.224 93.75 107.812Z" fill="#231815"/>
<path d="M65.625 120.312C65.625 122.901 63.5263 125 60.9375 125C58.3487 125 56.25 122.901 56.25 120.312C56.25 117.724 58.3487 115.625 60.9375 115.625C63.5263 115.625 65.625 117.724 65.625 120.312Z" fill="#231815"/>
<path d="M93.75 120.312C93.75 122.901 91.6513 125 89.0625 125C86.4737 125 84.375 122.901 84.375 120.312C84.375 117.724 86.4737 115.625 89.0625 115.625C91.6513 115.625 93.75 117.724 93.75 120.312Z" fill="#231815"/>
</svg>
