<svg width="150" height="150" viewBox="0 0 150 150" fill="none" xmlns="http://www.w3.org/2000/svg">
<path fill-rule="evenodd" clip-rule="evenodd" d="M105.665 65.8252C105.665 65.8252 106.241 68.75 106.437 68.778C117.043 70.2904 125 76.4766 125 87.5C125 99.5812 115.206 109.375 103.125 109.375H46.875C34.7938 109.375 25 99.5812 25 87.5C25 76.4766 33.1538 67.3576 43.7593 65.8452C43.9558 65.8172 44.1483 65.8112 44.3352 65.8252C47.1527 51.4616 59.8109 40.625 75 40.625C90.1891 40.625 102.847 51.4616 105.665 65.8252Z" fill="#F3F3F3"/>
<path d="M103.125 109.375H104.412C115.782 109.375 125 100.397 125 89.3229C125 79.1822 117.271 70.7997 107.238 69.4582C105.843 53.3085 91.9422 40.625 75 40.625C60.0134 40.625 47.4067 50.5495 43.7306 64.0187C33.037 66.1768 25 75.4035 25 86.4583C25 98.5732 34.652 108.492 46.875 109.319" stroke="#231815" stroke-width="2" stroke-linecap="round" stroke-linejoin="round"/>
<path d="M60.2296 90.2344C60.2296 88.7242 61.4538 87.5 62.964 87.5C64.4741 87.5 65.6983 88.7242 65.6983 90.2344V93.7014L68.7009 91.9679C70.0087 91.2128 71.681 91.6609 72.4361 92.9687C73.1912 94.2766 72.7431 95.9489 71.4353 96.704L68.4327 98.4375L71.4352 100.171C72.7431 100.926 73.1912 102.598 72.4361 103.906C71.681 105.214 70.0087 105.662 68.7009 104.907L65.6983 103.174V106.641C65.6983 108.151 64.4741 109.375 62.964 109.375C61.4538 109.375 60.2296 108.151 60.2296 106.641V103.174L57.227 104.907C55.9192 105.662 54.2469 105.214 53.4918 103.906C52.7367 102.598 53.1848 100.926 54.4927 100.171L57.4952 98.4375L54.4926 96.704C53.1848 95.9489 52.7367 94.2766 53.4918 92.9688C54.2469 91.6609 55.9192 91.2128 57.227 91.9679L60.2296 93.7014V90.2344Z" fill="#231815"/>
<path d="M85.2296 96.4844C85.2296 94.9742 86.4538 93.75 87.964 93.75C89.4741 93.75 90.6984 94.9742 90.6984 96.4844V99.9514L93.7009 98.2179C95.0087 97.4628 96.681 97.9109 97.4361 99.2187C98.1912 100.527 97.7431 102.199 96.4353 102.954L93.4327 104.687L96.4353 106.421C97.7431 107.176 98.1912 108.848 97.4361 110.156C96.681 111.464 95.0087 111.912 93.7009 111.157L90.6984 109.424V112.891C90.6984 114.401 89.4741 115.625 87.964 115.625C86.4538 115.625 85.2296 114.401 85.2296 112.891V109.424L82.227 111.157C80.9192 111.912 79.2469 111.464 78.4918 110.156C77.7367 108.848 78.1848 107.176 79.4927 106.421L82.4952 104.687L79.4926 102.954C78.1848 102.199 77.7367 100.527 78.4918 99.2188C79.2469 97.9109 80.9192 97.4628 82.227 98.2179L85.2296 99.9514V96.4844Z" fill="#231815"/>
<path d="M66.4796 113.672C66.4796 112.162 67.7038 110.937 69.214 110.937C70.7241 110.937 71.9483 112.162 71.9483 113.672V117.139L74.9509 115.405C76.2587 114.65 77.931 115.098 78.6861 116.406C79.4412 117.714 78.9931 119.386 77.6853 120.141L74.6827 121.875L77.6853 123.609C78.9931 124.364 79.4412 126.036 78.6861 127.344C77.931 128.652 76.2587 129.1 74.9509 128.345L71.9483 126.611V130.078C71.9483 131.588 70.7241 132.812 69.214 132.812C67.7038 132.812 66.4796 131.588 66.4796 130.078V126.611L63.477 128.345C62.1692 129.1 60.4969 128.652 59.7418 127.344C58.9867 126.036 59.4348 124.364 60.7427 123.609L63.7452 121.875L60.7426 120.141C59.4348 119.386 58.9867 117.714 59.7418 116.406C60.4969 115.098 62.1692 114.65 63.477 115.405L66.4796 117.139V113.672Z" fill="#231815"/>
</svg>
