<svg width="150" height="150" viewBox="0 0 150 150" fill="none" xmlns="http://www.w3.org/2000/svg">
<path fill-rule="evenodd" clip-rule="evenodd" d="M105.665 65.8252C105.665 65.8252 106.241 68.75 106.437 68.778C117.043 70.2904 125 76.4766 125 87.5C125 99.5812 115.206 109.375 103.125 109.375H46.875C34.7938 109.375 25 99.5812 25 87.5C25 76.4766 33.1538 67.3576 43.7593 65.8452C43.9558 65.8172 44.1483 65.8112 44.3352 65.8252C47.1527 51.4616 59.8109 40.625 75 40.625C90.1891 40.625 102.847 51.4616 105.665 65.8252Z" fill="#F3F3F3"/>
<path d="M103.125 109.375H104.412C115.782 109.375 125 100.397 125 89.3229C125 79.1822 117.271 70.7997 107.238 69.4582C105.843 53.3085 91.9422 40.625 75 40.625C60.0134 40.625 47.4067 50.5495 43.7306 64.0187C33.037 66.1768 25 75.4035 25 86.4583C25 98.5732 34.652 108.492 46.875 109.319" stroke="#231815" stroke-width="2" stroke-linecap="round" stroke-linejoin="round"/>
<path fill-rule="evenodd" clip-rule="evenodd" d="M83.9563 117.382C82.4617 116.519 82.0661 114.406 83.0729 112.662L90.3646 100.032C91.3714 98.2887 93.3992 97.5746 94.8938 98.4376C96.3885 99.3005 96.784 101.414 95.7772 103.157L88.4856 115.787C87.4788 117.531 85.451 118.245 83.9563 117.382Z" fill="#231815"/>
<path d="M81.19 103.71C81.0612 103.336 80.7417 103.066 80.3616 103.01L68.7333 101.286L74.0678 89.0057C74.2103 88.6752 74.182 88.2917 73.9903 87.9872C73.7997 87.6836 73.4719 87.5 73.1212 87.5H56.8819C56.3237 87.5 55.8661 87.9558 55.8463 88.5304L55.0985 110.355C55.0797 110.9 55.4629 111.372 55.9866 111.45L64.071 112.65L53.2543 132.789C53.0009 133.264 53.1297 133.857 53.5549 134.174C53.7381 134.31 53.9496 134.375 54.1611 134.375C54.4418 134.375 54.7204 134.257 54.9235 134.029L80.9773 104.791C81.237 104.5 81.3187 104.084 81.19 103.71Z" fill="#FFB900"/>
</svg>
