<svg width="150" height="150" viewBox="0 0 150 150" fill="none" xmlns="http://www.w3.org/2000/svg">
<path fill-rule="evenodd" clip-rule="evenodd" d="M73.4375 25C82.0259 25 88.9881 31.9059 88.9881 40.4247V79.8408C97.4632 85.02 103.125 94.3119 103.125 104.928C103.125 121.191 89.8335 134.375 73.4375 134.375C57.0415 134.375 43.75 121.191 43.75 104.928C43.75 94.3119 49.4118 85.02 57.8869 79.8408V40.4247C57.8869 31.9059 64.8491 25 73.4375 25ZM64.9554 84.1228C56.666 87.4511 50.8185 95.5122 50.8185 104.928C50.8185 117.319 60.9453 127.364 73.4375 127.364C85.9297 127.364 96.0565 117.319 96.0565 104.928C96.0565 95.5122 90.209 87.4511 81.9196 84.1228V40.4247C81.9196 35.7781 78.1221 32.0112 73.4375 32.0112C68.7529 32.0112 64.9554 35.7781 64.9554 40.4247V84.1228Z" fill="#231815"/>
<path d="M92.1875 104.688C92.1875 115.043 83.7928 123.438 73.4375 123.438C63.0822 123.438 54.6875 115.043 54.6875 104.688C54.6875 94.3322 63.0822 85.9375 73.4375 85.9375C83.7928 85.9375 92.1875 94.3322 92.1875 104.688Z" fill="#00A4EF"/>
<path d="M78.125 76.5625C78.125 73.9737 76.0263 71.875 73.4375 71.875C70.8487 71.875 68.75 73.9737 68.75 76.5625V98.4375C68.75 101.026 70.8487 103.125 73.4375 103.125C76.0263 103.125 78.125 101.026 78.125 98.4375V76.5625Z" fill="#00A4EF"/>
</svg>
