<svg width="150" height="150" viewBox="0 0 150 150" fill="none" xmlns="http://www.w3.org/2000/svg">
<path fill-rule="evenodd" clip-rule="evenodd" d="M105.665 65.8252C105.665 65.8252 106.241 68.75 106.437 68.778C117.043 70.2904 125 76.4766 125 87.5C125 99.5812 115.206 109.375 103.125 109.375H46.875C34.7938 109.375 25 99.5812 25 87.5C25 76.4766 33.1538 67.3576 43.7593 65.8452C43.9558 65.8172 44.1483 65.8112 44.3352 65.8252C47.1527 51.4616 59.8109 40.625 75 40.625C90.1891 40.625 102.847 51.4616 105.665 65.8252Z" fill="#F3F3F3"/>
<path d="M103.125 109.375H104.412C115.782 109.375 125 100.397 125 89.3229C125 79.1822 117.271 70.7997 107.238 69.4582C105.843 53.3085 91.9422 40.625 75 40.625C60.0134 40.625 47.4067 50.5495 43.7306 64.0187C33.037 66.1768 25 75.4035 25 86.4583C25 98.5732 34.652 108.492 46.875 109.319" stroke="#231815" stroke-width="2" stroke-linecap="round" stroke-linejoin="round"/>
<path fill-rule="evenodd" clip-rule="evenodd" d="M87.5 87.5C82.3223 87.5 78.125 91.6973 78.125 96.875V97.7273C78.125 99.4532 79.5241 100.852 81.25 100.852C82.9759 100.852 84.375 99.4532 84.375 97.7273V96.875C84.375 95.1491 85.7741 93.75 87.5 93.75C89.2259 93.75 90.625 95.1491 90.625 96.875V98.4375C90.625 101.026 88.5263 103.125 85.9375 103.125H82.8125C81.0866 103.125 79.6875 104.524 79.6875 106.25C79.6875 107.976 81.0866 109.375 82.8125 109.375H85.9375C91.9781 109.375 96.875 104.478 96.875 98.4375V96.875C96.875 91.6973 92.6777 87.5 87.5 87.5ZM89.0625 137.5C83.0219 137.5 78.125 132.603 78.125 126.562V125C78.125 123.274 79.5241 121.875 81.25 121.875C82.9759 121.875 84.375 123.274 84.375 125V126.562C84.375 129.151 86.4737 131.25 89.0625 131.25C91.6513 131.25 93.75 129.151 93.75 126.562V125C93.75 121.548 90.9518 118.75 87.5 118.75H75C73.2741 118.75 71.875 117.351 71.875 115.625C71.875 113.899 73.2741 112.5 75 112.5H87.5C94.4036 112.5 100 118.096 100 125V126.562C100 132.603 95.1031 137.5 89.0625 137.5Z" fill="#231815"/>
<path d="M78.065 103.71C77.9362 103.336 77.6167 103.066 77.2366 103.01L65.6083 101.286L70.9428 89.0057C71.0853 88.6752 71.057 88.2917 70.8653 87.9872C70.6747 87.6836 70.3469 87.5 69.9962 87.5H53.7569C53.1987 87.5 52.7411 87.9558 52.7213 88.5304L51.9735 110.355C51.9547 110.9 52.3379 111.372 52.8616 111.45L60.946 112.65L50.1293 132.789C49.8759 133.264 50.0047 133.857 50.4299 134.174C50.6131 134.31 50.8246 134.375 51.0361 134.375C51.3168 134.375 51.5954 134.257 51.7985 134.029L77.8523 104.791C78.112 104.5 78.1937 104.084 78.065 103.71Z" fill="#FFB900"/>
</svg>
