<svg width="150" height="150" viewBox="0 0 150 150" fill="none" xmlns="http://www.w3.org/2000/svg">
<path fill-rule="evenodd" clip-rule="evenodd" d="M105.665 65.8252C105.665 65.8252 106.241 68.75 106.437 68.778C117.043 70.2904 125 76.4766 125 87.5C125 99.5812 115.206 109.375 103.125 109.375H46.875C34.7938 109.375 25 99.5812 25 87.5C25 76.4766 33.1538 67.3576 43.7593 65.8452C43.9558 65.8172 44.1483 65.8112 44.3352 65.8252C47.1527 51.4616 59.8109 40.625 75 40.625C90.1891 40.625 102.847 51.4616 105.665 65.8252Z" fill="#F3F3F3"/>
<path d="M103.125 109.375H104.412C115.782 109.375 125 100.397 125 89.3229C125 79.1822 117.271 70.7997 107.238 69.4582C105.843 53.3085 91.9422 40.625 75 40.625C60.0134 40.625 47.4067 50.5495 43.7306 64.0187C33.037 66.1768 25 75.4035 25 86.4583C25 98.5732 34.652 108.492 46.875 109.319" stroke="#231815" stroke-width="2" stroke-linecap="round" stroke-linejoin="round"/>
<path fill-rule="evenodd" clip-rule="evenodd" d="M72.7296 102.734C72.7296 101.224 73.9538 100 75.464 100C76.9741 100 78.1983 101.224 78.1983 102.734V106.201L81.2009 104.468C82.5087 103.713 84.181 104.161 84.9361 105.469C85.6912 106.777 85.2431 108.449 83.9353 109.204L80.9327 110.938L83.9352 112.671C85.2431 113.426 85.6912 115.098 84.9361 116.406C84.181 117.714 82.5087 118.162 81.2009 117.407L78.1983 115.674V119.141C78.1983 120.651 76.9741 121.875 75.464 121.875C73.9538 121.875 72.7296 120.651 72.7296 119.141V115.674L69.727 117.407C68.4192 118.162 66.7469 117.714 65.9918 116.406C65.2367 115.098 65.6848 113.426 66.9927 112.671L69.9952 110.938L66.9926 109.204C65.6848 108.449 65.2367 106.777 65.9918 105.469C66.7469 104.161 68.4192 103.713 69.727 104.468L72.7296 106.201V102.734Z" fill="#231815"/>
</svg>
